<?xml version="1.0" standalone="no"?>
<!DOCTYPE svg PUBLIC "-//W3C//DTD SVG 1.1//EN" "http://www.w3.org/Graphics/SVG/1.1/DTD/svg11.dtd" >
<!--
2013-9-30: Created.
-->
<svg>
<metadata>
Created by iconfont
</metadata>
<defs>

<font id="iconfont" horiz-adv-x="1024" >
  <font-face
    font-family="iconfont"
    font-weight="500"
    font-stretch="normal"
    units-per-em="1024"
    ascent="896"
    descent="-128"
  />
    <missing-glyph />
    
    <glyph glyph-name="video" unicode="&#58925;" d="M1377.03009525 780.5968254c-32.24787302 20.15492063-274.23695238-92.32253968-274.23695238-92.32253969V699.97714286c0 98.304-83.22031746 177.8184127-186.14044445 177.8184127H199.9177143C97.06260318 877.73053968 13.77726985 798.15111111 13.77726985 699.97714286v-597.75593651c0-98.304 83.28533333-177.8184127 186.14044445-177.8184127h716.93003174c102.85511111 0 186.14044444 79.5144127 186.14044445 177.8184127v14.56355555s243.3544127-111.63225397 274.23695238-92.45257142c30.68749206 19.24469841 32.24787302 736.3047619-0.19504762 756.39466666zM408.74869842 251.36761905000003V572.7410793700001a65.01587302 65.01587302 0 0 0 98.82412699 55.58857142l264.74463492-160.58920635a65.01587302 65.01587302 0 0 0 0-111.17714285l-264.8096508-160.78425397a65.01587302 65.01587302 0 0 0-98.75911111 55.58857143z"  horiz-adv-x="1408" />

    
    <glyph glyph-name="play" unicode="&#58990;" d="M254.77363102 884.17835495l630.52815149-450.97452445a56.49893776 56.49893776 0 0 0 0-91.98027211l-630.52815149-450.86152768a56.49893776 56.49893776 0 0 0-89.26832307 45.87713847V838.18821977a56.49893776 56.49893776 0 0 0 89.26832307 45.99013518z"  horiz-adv-x="1024" />

    
    <glyph glyph-name="pause" unicode="&#58899;" d="M765.96243931 891.13089156c-58.07448366 0-108.88965687-50.70174647-108.88965686-108.66280343v-796.93617626c0-57.96105694 50.8151732-108.66280341 108.88965686-108.66280343s108.88965687 50.70174647 108.88965689 108.66280343V782.46808813c0 57.96105694-50.8151732 108.66280341-108.88965689 108.66280343z m-507.92487862 0c-58.07448366 0-108.88965687-50.70174647-108.88965689-108.66280343v-796.93617626c0-57.96105694 50.8151732-108.66280341 108.88965689-108.66280343s108.88965687 50.70174647 108.88965686 108.66280343V782.46808813c-0.11342672 57.96105694-50.92859993 108.66280341-108.88965686 108.66280343z"  horiz-adv-x="1024" />

    
    <glyph glyph-name="item" unicode="&#58890;" d="M970.41066667-73.72799999999995l-386.048 0L584.36266667 312.32000000000005 970.41066667 312.32000000999994zM558.30755554-125.83822222000003L996.46577778-125.83822222000003c14.44977778 0 26.05511111 11.71911113 26.05511111 26.05511111l0 438.15822222c0 14.44977778-11.71911113 26.05511111-26.05511111 26.0551111l-438.15822223 1e-8c-14.44977778 0-26.05511111-11.71911113-26.0551111-26.05511111L532.25244445-99.78311112999995c0-14.336 11.71911113-26.05511111 26.05511109-26.05511109zM584.36266667 312.32000000000005L970.41066667 312.32000000999994 970.41066667-73.72799999999995l-386.048 0L584.36266667 312.32000000000005zM970.41066667 457.95555555l-386.048 0 0 386.048L970.41066667 844.00355554zM558.30755555 405.84533332L996.46577778 405.84533333c14.44977778 0 26.05511111 11.71911113 26.05511111 26.05511112l0 438.15822222c0 14.44977778-11.71911113 26.05511111-26.05511111 26.05511111l-438.15822223 0c-14.44977778 0-26.05511111-11.71911113-26.0551111-26.05511111L532.25244445 431.90044445c0-14.44977778 11.71911113-26.05511111 26.0551111-26.05511113z m26.05511112 438.15822223L970.41066667 844.00355554 970.41066667 457.95555555l-386.048 0 0 386.048zM439.63733333 457.95555555l-386.048 0 0 386.04799999L439.63733333 844.00355555zM27.53422222 405.84533333L465.69244445 405.84533332c14.44977778 0 26.05511111 11.71911113 26.0551111 26.05511113l0 438.15822222c0 14.44977778-11.71911113 26.05511111-26.0551111 26.05511111l-438.15822223 0c-14.44977778 0-26.05511111-11.71911113-26.05511111-26.05511111L1.47911111 431.90044445c-0.11377778-14.44977778 11.60533333-26.05511111 26.05511111-26.05511112z m26.05511111 438.15822221L439.63733333 844.00355555 439.63733333 457.95555555l-386.048 0 0 386.04799999zM439.63733333 312.32000000000005l-386.048 1e-8L53.58933333-73.72799999999995 439.63733333-73.72799999999995 439.63733333 312.32000000000005z m-292.06755555-104.56177778c14.44977778 0 26.05511111-11.71911113 26.05511111-26.05511111 0-14.44977778-11.71911113-26.05511111-26.05511111-26.05511111-14.44977778 0-26.05511111 11.71911113-26.05511111 26.05511111 0 14.336 11.71911113 26.05511111 26.05511111 26.05511111zM319.60177779-11.150222220000046l-172.03200001 0c-14.44977778 0-26.05511111 11.71911113-26.05511111 26.05511111l0 83.39911111c0 14.44977778 11.71911113 26.05511111 26.05511111 26.05511111 14.44977778 0 26.05511111-11.71911113 26.05511111-26.05511111l0-57.344L319.60177778 40.960000000000036c14.44977778 0 26.05511111-11.71911113 26.05511111-26.05511111 0-14.44977778-11.60533333-26.05511111-26.0551111-26.05511111zM27.53422222-125.83822222000003L465.69244446-125.83822222000003c14.44977778 0 26.05511111 11.71911113 26.05511109 26.05511109l0 438.15822224c0 14.44977778-11.71911113 26.05511111-26.0551111 26.05511111l-438.15822223-1e-8c-14.44977778 0-26.05511111-11.71911113-26.05511111-26.0551111L1.47911111-99.78311111000005c-0.11377778-14.336 11.60533333-26.05511111 26.05511111-26.05511111zM53.58933333 312.32000000999994L439.63733333 312.32000000000005 439.63733333-73.72799999999995l-386.048 0L53.58933333 312.32000000999994zM319.60177778 40.960000000000036l-145.97688889 0 0 57.344c0 14.44977778-11.71911113 26.05511111-26.05511111 26.05511111-14.44977778 0-26.05511111-11.71911113-26.05511111-26.05511111l0-83.39911111c0-14.44977778 11.71911113-26.05511111 26.05511111-26.05511111L319.60177779-11.150222220000046c14.44977778 0 26.05511111 11.71911113 26.0551111 26.05511111 0 14.336-11.60533333 26.05511111-26.05511111 26.05511111zM147.56977778 181.70311111m26.05511111 0a26.05511111 26.05511111 0 1 1-52.11022222 0 26.05511111 26.05511111 0 1 1 52.11022222 0Z"  horiz-adv-x="1024" />

    
    <glyph glyph-name="list" unicode="&#59266;" d="M-5.81530851 804.72493853h129.45382741v-129.45382742H-5.81530851zM253.09234517 804.72493853h776.72296334v-129.45382742H253.09234517zM253.09234517 448.72691371h776.72296334v-129.45382742H253.09234517zM-5.81530851 448.72691371h129.45382741v-129.45382742H-5.81530851zM253.09234517 92.72888889000001h776.72296334v-129.45382742H253.09234517zM-5.81530851 92.72888889000001h129.45382741v-129.45382742H-5.81530851z"  horiz-adv-x="1024" />

    
    <glyph glyph-name="ku" unicode="&#59023;" d="M956.5591294 707.27919375H573.9507665c-27.32916919 0-47.8260455 6.83229173-61.49063011 34.16146091l-47.82604551 88.81979927c-20.49687631 20.49687631-40.99375263 34.16146093-61.49063009 34.16146092H68.3611434c-40.99375263 0-68.32292182-27.32916919-68.32292183-68.32292182v-819.87506418c0-34.16146093 27.32916919-68.32292182 68.32292183-68.32292184h888.197986c34.16146093 0 68.32292182 27.32916919 68.32292183 68.32292184V645.78856476c0 34.16146093-27.32916919 61.4906301-68.32292183 61.49062899zM273.32991001 522.8073045799999h478.26045278c40.99375263 0 68.32292182-27.32916919 68.32292181-68.32292182s-27.32916919-68.32292182-68.32292181-68.32292181H273.32991001c-40.99375263 0-68.32292182 27.32916919-68.32292296 68.32292181s27.32916919 68.32292182 68.32292296 68.32292182z"  horiz-adv-x="1024" />

    
    <glyph glyph-name="shezhi" unicode="&#58880;" d="M1020.90879423 249.58597609000003q2.18116065-13.08696379-1.09058032-31.62682917t-10.90580317-37.6250209-18.53986536-34.35327995-23.99276696-21.81160632-22.90218662-6.54348189-21.81160633 4.36232127q-10.90580315 3.27174094-27.2645079 5.99819172t-33.26269963 1.09058033-33.80798979-7.08877205-28.90037837-18.53986537q-26.17392759-27.2645079-30.53624885-62.16307801t9.81522285-66.52539928q10.90580315-21.81160633-3.27174094-43.62321264-6.54348189-8.72464253-20.72102602-17.9945752t-31.081539-16.9039949-35.44386026-11.99638347-32.71740948-4.36232127q-9.81522284 0-18.53986538 7.63406221t-11.99638346 16.35870475l-1.09058033 0q-11.99638348 33.8079898-40.89676184 58.34604689t-67.07068943 24.5380571q-37.07973073 0-67.07068943-24.5380571t-41.98734216-57.25546658q-5.45290158-13.08696379-16.35870475-19.08515554t-23.99276694-5.99819173q-15.26812442 0-34.35327995 5.45290158t-38.17031105 13.63225394-34.35327996 19.08515554-22.90218663 21.81160631q-5.45290158 7.63406221-5.99819174 17.99457522t8.17935237 28.90037836q11.99638348 25.08334727 9.26993269 57.25546659t-27.80979807 59.43662723q-15.26812442 16.35870474-37.07973074 21.26631616t-41.442052 3.8170311q-22.90218663-1.09058032-46.89495358-8.72464253-15.26812442-4.36232126-30.53624886 2.18116064-11.99638348 4.36232126-22.35689646 20.17573584t-18.53986538 34.89857011-12.54167364 39.26089136-2.18116062 33.26269965q3.27174094 23.99276694 21.81160632 30.53624883 32.71740947 13.08696379 58.89133705 43.07792249t26.17392759 67.07068943q0 38.17031106-26.17392759 66.52539927t-58.89133705 41.44205199q-9.81522284 3.27174094-16.35870474 15.81341458t-6.54348189 25.62863744q0 14.17754411 4.36232126 31.62682916t11.45109331 33.80798979 16.35870475 29.99095869 20.17573583 20.17573584q8.72464253 5.45290158 16.9039949 4.36232127t17.99457522-4.36232127q32.71740947-13.08696379 68.16126975-8.17935237t62.70836816 31.08153901q13.08696379 13.08696379 19.08515552 32.17211932t7.63406222 37.6250209 0 33.8079898-2.72645079 21.81160631q-2.18116065 6.54348189-3.81703111 15.26812442t1.63587048 15.26812443q6.54348189 15.26812442 23.44747678 26.71921774t36.5344406 19.08515551 38.17031104 11.45109334 29.44566854 3.8170311q14.17754411 0 22.35689647-9.26993268t11.45109332-19.08515554q11.99638348-29.44566853 39.26089138-51.80256501t64.34423863-22.35689648q38.17031106 0 67.61597959 21.26631617t41.442052 53.98372563q4.36232126 8.72464253 13.63225396 17.99457523t19.08515552 9.26993268q15.26812442 0 33.26269963-4.36232126t35.44386028-11.99638347 32.1721193-19.6304457 23.44747681-26.17392759q5.45290158-8.72464253 3.27174094-19.08515552t-4.36232127-14.72283427q-14.17754411-31.62682916-8.72464252-66.52539926t31.62682918-61.0724977 64.34423862-28.90037837 70.88772054 12.54167363q8.72464253 5.45290158 21.26631616 4.36232127t21.26631616-9.81522284q16.35870474-15.26812442 28.90037837-46.34966344t16.90399489-62.70836816q2.18116065-18.53986537-5.99819173-28.90037836t-16.9039949-13.63225397q-33.8079898-11.99638348-57.80075674-41.98734215t-23.99276694-68.16126975q0-37.07973073 20.17573583-64.88952879t52.89314533-39.80618152q7.63406221-4.36232126 13.08696378-8.72464254 11.99638348-9.81522284 16.35870475-25.08334726zM513.78894733 151.43374766q49.07611421 0 92.69932685 18.53986536t75.79533195 51.25727485 50.71198468 75.79533195 18.53986538 92.15403671-18.53986538 92.15403669-50.71198468 75.2500418-75.79533195 50.71198469-92.69932685 18.53986536-92.15403669-18.53986536-75.2500418-50.71198469-50.7119847-75.2500418-18.53986538-92.15403669 18.53986538-92.15403671 50.7119847-75.79533195 75.2500418-51.25727485 92.15403669-18.53986536z"  horiz-adv-x="1024" />

    
    <glyph glyph-name="user" unicode="&#58898;" d="M634.722462 186.44676900000002C631.099077 227.09169199999997 632.438154 255.44861500000002 632.438154 292.627692 650.633846 302.31630800000005 683.165538 363.83507699999996 688.679385 415.901538 702.936615 417.083077 725.385846 431.182769 732.002462 486.951385c3.544615 29.932308-10.555077 46.788923-19.140923 52.066462 23.236923 70.813538 71.522462 289.949538-89.245538 312.635077C607.074462 881.112615 564.696615 896 509.636923 896 289.398154 891.904 262.852923 727.433846 311.138462 539.017846 302.552615 533.740308 288.452923 516.883692 291.997538 486.951385 298.535385 431.182769 321.063385 417.083077 335.320615 415.901538c5.513846-52.066462 39.305846-113.585231 57.501538-123.273846 0-37.100308 1.339077-65.457231-2.284308-106.102154C346.978462 67.66276900000003 52.932923 101.060923 39.384615-128l945.230769 0C971.067077 101.060923 678.281846 67.66276900000003 634.722462 186.44676900000002z"  horiz-adv-x="1024" />

    
    <glyph glyph-name="wendang" unicode="&#58907;" d="M807.89446208 598.5234849999999c-81.37097707 0-155.34459259 66.57625397-155.34459259 155.3445926V872.22586243c0 7.39736155-7.39736155 22.19208465-22.19208465 22.19208466h-443.84169313c-59.17889241 0-103.56306173-44.38416932-103.56306173-103.56306173v-806.31240917c0-59.17889241 44.38416932-103.56306173 103.56306173-103.56306173h643.57045503c59.17889241 0 103.56306173 44.38416932 103.56306172 103.56306173V583.7287619c0 7.39736155-7.39736155 22.19208465-22.19208465 22.19208466H807.89446208z m-22.19208465-540.00739329H238.29762257c-7.39736155 0-22.19208465 7.39736155-22.19208465 22.19208466v14.7947231c0 7.39736155 7.39736155 22.19208465 22.19208465 22.19208466h540.0073933c7.39736155 0 22.19208465-7.39736155 22.19208466-22.19208466v-14.7947231c0-14.7947231-7.39736155-22.19208465-14.7947231-22.19208466z m0 177.53667726H238.29762257c-7.39736155 0-22.19208465 7.39736155-22.19208465 22.19208465v14.7947231c0 7.39736155 7.39736155 22.19208465 22.19208465 22.19208466h540.0073933c7.39736155 0 22.19208465-7.39736155 22.19208466-22.19208466v-14.7947231c0-14.7947231-7.39736155-22.19208465-14.7947231-22.19208465z m0 177.53667724H238.29762257c-7.39736155 0-22.19208465 7.39736155-22.19208465 22.19208466v7.39736154c0 7.39736155 7.39736155 22.19208465 22.19208465 22.19208466h540.0073933c7.39736155 0 22.19208465-7.39736155 22.19208466-22.19208466v-14.79472309c0-7.39736155-7.39736155-14.7947231-14.7947231-14.79472311z m14.7947231 0M704.33140035 827.84169313v-66.57625397c0-59.17889241 44.38416932-103.56306173 103.56306173-103.56306173h66.57625397c22.19208465 0 36.98680776 29.58944621 14.79472311 44.38416931l-147.94723105 147.94723104c-7.39736155 14.7947231-36.98680776 0-36.98680776-22.19208465z m0 59.17889241"  horiz-adv-x="1024" />

    
    <glyph glyph-name="shou" unicode="&#58960;" d="M4.097777 311.04230399999994L118.835539 107.17788800000005s8.195554-9.219999 35.855551 4.097777S245.866632 177.86454500000002 260.208853 178.88898900000004c18.439997 5.122222 90.151099 9.219999 120.884427-4.097777s145.471091-25.611108 175.179976 0 87.077766 90.151099 87.077765 90.151098 18.439997 52.246659-25.611107 72.735546c-44.051105 19.464442-46.099994-13.317776-46.099994-13.317776s-27.659996-39.953328-51.222215-50.197771-93.224431-16.391109-111.664429 38.928883 16.391109 107.566652 79.906656 108.591096 71.711101-56.344437 75.808878-65.564435 53.271104-2.048889 64.539991 5.122222c12.293332 8.195554 31.757773 26.635552 9.219999 72.735545s-94.248876 90.151099-156.739978 96.297764c-14.34222 0-15.366665 8.195554 0 9.219999 15.366665 1.024444 80.9311 5.122222 99.371097-5.122221s36.879995-18.439997 59.417769-13.317776c22.537775 5.122222 60.442214 37.904439 20.488886 87.077765S478.415489 639.888925 474.317712 639.888925s-7.17111 6.146666 6.146665 12.293331c12.293332 8.195554 56.344437 25.611108 85.028877 28.684441s59.417769 44.051105 38.928884 72.735545-59.417769 24.586663-85.028877 21.51333c-53.271104-19.464442-108.591096-50.197771-111.664429-50.19777-8.195554 0-14.34222 15.366665-5.122222 21.51333s71.711101 60.442214 85.028878 82.979988c9.219999 11.268887 1.024444 72.735545-73.75999 65.564436-20.488886-6.146666-133.177759-103.468874-151.617757-166.984421s-23.562219-109.61554-35.85555-150.593313c-21.51333-61.466658-38.928883-90.151099-85.028877-149.568868-31.757773-23.562219-119.859983-61.466658-132.153315-80.9311s-10.244443-27.659996-5.122222-35.85555zM1331.777592 455.48895l-114.737762 203.864416s-8.195554 9.219999-35.85555-4.097777-91.175543-66.58888-105.517763-67.613324c-17.415553-5.122222-89.126654-9.219999-119.859984 4.097777s-146.495535 25.611108-175.179975 0-87.077766-90.151099-87.077766-90.151098-18.439997-52.246659 25.611108-72.735545 46.099994 13.317776 46.099993 13.317775 27.659996 39.953328 51.222215 50.197771 93.224431 16.391109 111.664429-38.928883-16.391109-107.566652-79.906655-107.566652-71.711101 56.344437-75.808879 65.564435-56.344437 3.073333-64.539991-5.122221c-8.195554-7.17111-31.757773-26.635552-9.219998-72.735546s94.248876-90.151099 156.739978-96.297764c14.34222 0 15.366665-8.195554 0-9.219999s-80.9311-5.122222-99.371097 5.122222c-18.439997 10.244443-36.879995 18.439997-59.41777 13.317776s-60.442214-37.904439-20.488886-87.077766S858.484325 127.66677400000003 863.606546 127.66677400000003s5.122222-7.17111-6.146666-12.293332c-12.293332-8.195554-56.344437-25.611108-85.028877-28.68444s-59.417769-44.051105-38.928883-72.735546 59.417769-24.586663 85.028877-21.51333c53.271104 19.464442 108.591096 50.197771 111.664429 50.197771 8.195554 0 14.34222-15.366665 5.122221-21.51333s-71.711101-60.442214-85.028877-82.979989c-9.219999-11.268887-1.024444-72.735545 73.75999-65.564435 18.439997 3.073333 131.128871 101.419986 149.568868 164.935532s23.562219 109.61554 34.831106 150.593313c21.51333 61.466658 38.928883 90.151099 85.028877 149.568868 31.757773 23.562219 119.859983 61.466658 132.153315 80.9311s11.268887 29.708885 6.146666 36.879994z"  horiz-adv-x="1336" />

    
    <glyph glyph-name="closed" unicode="&#58888;" d="M589.11749418 387.23955131L995.78744551 793.90950264c20.5276783 20.5276783 20.5276783 54.37060741 0 74.89828571l-2.21920848 2.21920847c-20.5276783 20.5276783-54.37060741 20.5276783-74.89828571 0L512 463.80224337 105.33004868 871.02699682c-20.5276783 20.5276783-54.37060741 20.5276783-74.89828571 0l-2.21920848-2.21920847c-21.08248043-20.5276783-21.08248043-54.37060741 0-74.89828571l406.66995133-406.66995133L28.21255449-19.43040000999997c-20.5276783-20.5276783-20.5276783-54.37060741 0-74.89828571l2.21920848-2.21920847c20.5276783-20.5276783 54.37060741-20.5276783 74.89828571 0L512 310.12205713000003 918.66995132-96.54789418999997c20.5276783-20.5276783 54.37060741-20.5276783 74.89828571 0l2.21920848 2.21920847c20.5276783 20.5276783 20.5276783 54.37060741 0 74.89828571L589.11749418 387.23955131z"  horiz-adv-x="1024" />

    
    <glyph glyph-name="database" unicode="&#59597;" d="M904.7014431 894.51187601H119.2985569c-43.19715874 0-78.54028862-35.34312989-78.54028863-78.54028861v-863.9431748c0-43.19715874 35.34312989-78.54028862 78.54028863-78.54028861h785.4028862c43.19715874 0 78.54028862 35.34312989 78.54028863 78.54028861V815.9715874c0 43.19715874-35.34312989 78.54028862-78.54028863 78.54028861zM119.2985569 501.81043292h785.4028862v-235.62086584H119.2985569v235.62086584z m785.4028862 314.16115448v-235.62086586H119.2985569V815.9715874h785.4028862zM119.2985569-47.971587399999976v235.62086586h785.4028862v-235.62086586H119.2985569zM237.10898982 698.16115449m-39.27014431 0a39.2701443 39.2701443 0 1 1 78.54028864 0 39.2701443 39.2701443 0 1 1-78.54028864 0ZM237.10898982 384m-39.27014431 0a39.2701443 39.2701443 0 1 1 78.54028864 0 39.2701443 39.2701443 0 1 1-78.54028864 0ZM237.10898982 69.83884551000006m-39.27014431 0a39.2701443 39.2701443 0 1 1 78.54028864 0 39.2701443 39.2701443 0 1 1-78.54028864 0Z"  horiz-adv-x="1024" />

    
    <glyph glyph-name="highlight" unicode="&#59361;" d="M1017.42949064 389.21762938L615.44517403 785.30375626c-3.51622851 3.51622851-9.18756479 3.51622851-12.7037933 0L331.99178598 518.5240969199999c-3.51622851-3.51622851-3.62965524-9.30099152-0.11342674-12.81722002l0.11342674-0.11342672 45.37069037-44.69013002-132.93612277-130.78101496c-3.51622851-3.51622851-3.62965524-9.30099152-0.11342673-12.81722004l0.11342673-0.11342671 44.80355675-44.12299638-214.4899387-212.10797746H13.03583274c-4.99077593 0-9.18756479-4.08336214-9.18756481-9.07413807V-10.725006150000013c0-4.99077593 4.08336214-9.07413807 9.07413808-9.07413809h391.20877764c2.38196122 0 4.65049576 0.9074138 6.35189666 2.60881471l86.31773842 85.75060479 45.82439726-45.14383694c3.51622851-3.51622851 9.18756479-3.51622851 12.70379331 0l132.82269606 131.12129518 45.48411707-44.80355675c3.51622851-3.51622851 9.18756479-3.51622851 12.7037933 0l270.74959475 266.77965936c3.85650868 3.40280179 3.85650868 9.07413807 0.34028016 12.70379327zM373.39254093 61.64124497H191.68292604l152.44551961 150.85754545 90.85480746-89.49368673-61.59071218-61.36385872z m175.5845717 70.43799677L354.56370444 323.65698182999995l77.81073397 76.67646669 194.4134082-191.57774005-77.81073398-76.67646673zM740.10114581 218.39698017L442.01571011 512.05877354 609.09327739 676.64095284l298.08543566-293.77522012-167.07756724-164.46875255z"  horiz-adv-x="1024" />

    
    <glyph glyph-name="strikethrough" unicode="&#59385;" d="M1011.07759399 427.10215583H577.67407431c-11.34267259 2.26853451-23.25247881 4.53706903-35.84284539 6.80560357-18.03484941 3.28937506-25.18073316 4.65049576-34.93543159 6.57875011-58.18791039 11.34267259-93.23676869 22.68534519-121.13974328 38.79194025-39.8127808 23.25247881-59.20875092 54.78510861-59.20875091 96.52614374 0 41.96788857 17.24086233 76.78989343 49.90775939 100.94978607 32.21319016 23.81961243 78.03758742 36.40997902 132.48241589 36.40997902 62.1578458 0 110.13735086-16.33344852 142.69082117-48.54663869 16.56030199-16.33344852 28.69696166-36.40997902 36.06969885-59.66245784 1.47454744-4.65049576 3.17594832-11.34267259 4.87734922-20.1899572 1.02084052-5.44448285 5.89818975-9.30099152 11.22924584-9.30099152h82.57465647c6.35189665 0 11.45609931 5.21762938 11.45609932 11.45609931v1.13426727c-0.79398707 7.71301738-1.47454744 13.72463383-2.26853451 18.14827614-8.280151 49.34062577-31.75948326 92.66963509-67.71575538 125.10967867-50.36146629 45.93782399-124.42911833 70.0977166-214.03623178 70.09771662-82.00752282 0-155.8483214-20.53023739-207.9111886-57.7342035-29.03724183-20.87051757-51.49573358-46.73181106-66.46806137-76.78989342-15.31260799-30.73864272-23.02562536-66.24120792-23.02562537-105.37342839 0-33.46088414 6.46532338-61.81756562 19.62282358-86.77144531 9.41441825-17.80799598 22.23163828-33.46088414 38.67851355-47.6392249H12.92240601c-4.99077593 0-9.07413807-4.08336214-9.07413808-9.07413805v-68.05603556c0-4.99077593 4.08336214-9.07413807 9.07413808-9.07413805h491.36457661c2.38196122-0.4537069 4.42364231-0.9074138 6.69217686-1.36112073 35.0488583-7.03245701 56.14622932-11.79637949 75.54219944-17.24086233 26.08814698-7.37273718 46.05125071-15.08575454 62.6115527-24.38674608 40.60676788-22.91219863 60.45644492-55.80594915 60.45644492-100.94978606 0-40.03963425-17.58114252-75.76905291-49.4540525-100.72293261-34.5951514-27.1089875-85.75060479-41.28732822-148.02187732-41.28732821-49.56747922 0-91.53536781 9.64127169-124.99625193 28.35668146-33.00717723 18.48855632-55.69252242 45.14383691-67.71575537 78.83157451-0.9074138 2.49538796-1.92825434 5.89818975-3.06252162 10.20840535-1.3611207 4.99077593-6.01161648 8.50700444-11.0023924 8.50700443h-90.40110056c-6.35189665 0-11.45609931-5.21762938-11.45609932-11.4560993v-1.13426728c0.22685345-2.60881471 0.4537069-4.7639225 0.68056036-6.46532338 7.37273718-55.35224222 34.36829796-100.7229326 80.19269523-134.75095039 53.42398792-39.47250061 128.62590718-60.34301817 217.55246029-60.34301817 95.50530323 0 175.58457171 22.45849172 231.61737429 64.99351395 28.35668147 21.43765119 50.13461286 47.86607833 64.7666605 78.26444087 14.74547439 30.73864272 22.34506499 65.67407431 22.345065 103.78545422 0 36.06969883-6.57875011 66.24120792-20.18995721 92.32935488-6.57875011 12.70379331-14.85890111 24.38674606-24.72702624 34.93543158H1011.07759399c4.99077593 0 9.07413807 4.08336214 9.07413808 9.07413806v68.05603555c0 4.87734921-4.08336214 8.96071135-9.07413808 8.96071134z"  horiz-adv-x="1024" />

    
    <glyph glyph-name="reload" unicode="&#59216;" d="M995.33643196 752.43600613l-68.64813504-53.67699993C833.08826681 818.4063777599999 687.5152696 895.20952309 524.04993907 895.20952309 241.78925178 895.20952309 13.32728235 666.99098629 12.96213177 384.60858321 12.59698227 101.98274643000002 241.54581913-127.20952308999995 524.04993907-127.20952308999995c220.67211079 0 408.72418582 139.97403563 480.29351799 336.059403 1.8257486 5.11209524-0.85201587 10.83277368-5.96411111 12.53680543l-69.01328562 23.73472756a9.73732409 9.73732409 0 0 1-12.29337171-5.84239425c-2.19089811-6.08582795-4.62522886-12.17165486-7.18127649-18.13576703-21.05696414-49.90378693-51.24266918-94.69547862-89.70509918-133.15790865A419.64216002 419.64216002 0 0 0 687.15012009-1.8414730800000143c-51.48610182-21.78726317-106.38026711-32.86346949-162.85674838-32.86346949-56.59819705 0-111.37064655 11.07620633-162.85674837 32.86346949A415.66202859 415.66202859 0 0 0 228.40043154 87.98534297000003a416.46535814 416.46535814 0 0 0-89.70510025 133.15790865c-21.78726317 51.60781867-32.86346949 106.38026711-32.8634695 162.97846524s11.07620633 111.37064655 32.8634695 162.97846417c21.05696414 49.90378693 51.24266918 94.69547862 89.70510025 133.15790971 38.46243108 38.46243108 83.25412278 68.64813611 133.0361918 89.82681605 51.48610182 21.78726317 106.38026711 32.86346949 162.85674837 32.86346949 56.59819705 0 111.37064655-11.07620633 162.85674838-32.86346949a415.66202859 415.66202859 0 0 0 133.03619286-89.82681605c12.04993907-12.04993907 23.36957805-24.83017714 33.83720116-38.21899844l-73.27336499-57.2067792a9.73732409 9.73732409 0 0 1 3.65149721-17.16203429l213.73426698-52.33811769c6.08582795-1.46059909 12.04993907 3.16463084 12.04993905 9.37217459l0.97373167 220.18524443c-0.12171686 8.03329235-9.49389144 12.53680542-15.82315207 7.54642599z"  horiz-adv-x="1024" />

    
    <glyph glyph-name="tool" unicode="&#59227;" d="M969.97857155 726.2906216700001c-0.62805665 1.13050065-1.50733531 2.26100243-2.51222445 3.1402811-6.28056217 6.28056217-16.45507259 6.28056217-22.73563367 0L728.30255094 513.0027413600001l-85.29003024 85.29003027L859.56629365 814.84654455c1.00489022 1.00489022 1.75855733 2.00977933 2.51222552 3.14028111 4.52200487 7.66228595 2.00977933 17.4599617-5.65250553 21.98196656-123.35023473 72.85451742-284.8862866 56.14822284-391.02778273-49.86766176-84.15952958-84.15952958-112.04522368-203.49020457-83.53147294-310.76220137l-368.04092598-368.04092599c-3.76833666-3.76833666-3.51711466-9.92328728 0.37683356-13.81723549l213.16226985-213.16226984c3.89394821-3.89394821 10.17451038-4.1451713 13.8172366-0.37683465l367.91531442 367.91531552c107.39760835-28.63936229 226.72828334-0.87927866 311.01342448 83.40586139 106.01588459 106.14149615 122.72217917 267.67754691 49.86766065 391.02778164zM856.17479054 399.32457082c-72.98012897-72.98012897-182.51312822-87.04858757-269.56171579-42.2053758l-11.05378904-11.05378905-0.12561047 0.12561155-344.17479055-344.30040209-99.48410039 99.48410039 289.03145682 289.03145682s0-0.12561155 0.12561155-0.12561047l66.32273323 66.32273325c-44.84321178 87.04858757-30.77475318 196.58158681 42.2053758 269.56171579a231.37589975 231.37589975 0 0 0 180.88018245 67.20201191L543.40280983 626.5552992600001a40.25840115 40.25840115 0 0 1 0-56.90188996l156.38599036-156.38599144a40.25840115 40.25840115 0 0 1 56.90188996 0l166.81172383 166.81172384c4.6476153-65.06662102-18.08801836-131.64057734-67.32762344-180.75457088z"  horiz-adv-x="1024" />

    
    <glyph glyph-name="jian" unicode="&#58917;" d="M7.00678471 299.83446411V468.16553589h1009.98643058v-168.33107178z"  horiz-adv-x="1024" />

    
    <glyph glyph-name="import" unicode="&#58920;" d="M1022.27146664 484.21973333c0 17.472-16.19520001 31.6176-36.15359999 31.6176l-72.27359999 0c-19.95840001 0-36.1536-14.17920001-36.1536-31.6176l0-474.36480001-722.83680001 0L154.85386665 484.21973333c0 17.472-16.19520001 31.6176-36.1536 31.6176l-72.27359998 0c-19.95840001 0-36.1536-14.17920001-36.15360001-31.6176l0-537.6c0-34.9104 32.3904-63.23520001 72.27359999-63.23520001L949.93066665-116.61546668000005c39.9168 0 72.2736 28.3248 72.2736 63.23520001l1e-8 537.6z m-262.21439999-148.84800001a31.752 31.752 0 0 0 0-44.78879999l-199.04639999-198.9792a63.168 63.168 0 0 0-89.44320001 0l-199.0464 198.9792a31.752 31.752 0 0 0 0 44.78879999l44.72160001 44.65440001a31.5504 31.5504 0 0 0 44.72159999 0l91.0896-91.02239999L453.05386665 863.66453332a31.6176 31.6176 0 0 0 31.61760001 31.61760002l63.23519999 0c17.472 0 31.6176-14.17920001 31.6176-31.61760001l0-574.66079999 91.0224 91.02239999a31.584 31.584 0 0 0 44.78880001 0l44.7216-44.65439999z"  horiz-adv-x="1024" />

    
    <glyph glyph-name="save" unicode="&#59147;" d="M814.589 888L1016 688.4159999999999v-641.97a166.32 166.32 0 0 0-166.194-166.131h-102.564a46.557 46.557 0 0 0-10.584 0H287.342a46.494 46.494 0 0 0-10.584 0H174.194A166.32 166.32 0 0 0 8 46.446000000000026V721.869A166.32 166.32 0 0 0 174.194 888h640.395z m108.486-841.554V649.671l-146.79 145.467H174.257c-40.446 0-73.269-32.886-73.269-73.269v-675.423c0-40.383 32.823-73.269 73.269-73.269h61.425v187.551c0 32.886 26.712 59.598 59.598 59.598h433.566c32.886 0 59.598-26.712 59.598-59.598v-187.551h61.425c40.446 0 73.269 32.886 73.269 73.269z m-594.594-73.269h367.038v154.287H328.481v-154.287z m397.215 587.16a46.431 46.431 0 1 0 0-92.862H291.374a46.431 46.431 0 1 0 0 92.862h434.322z m0 151.326a46.431 46.431 0 1 0 0-92.925H291.374a46.431 46.431 0 1 0 0 92.925h434.322z"  horiz-adv-x="1024" />

    
    <glyph glyph-name="room" unicode="&#59445;" d="M361.87412441 139.55999999999995c-9.576 0-17.136-7.56-17.136-17.136s7.56-17.136 17.136-17.136 17.136 7.56 17.136 17.136-7.56 17.136-17.136 17.136zM929.88212441-64.55999999999995h-1.512c-13.104 0-23.688 10.584-23.688 23.688V484.296c0 16.128-13.104 29.736-29.736 29.736H184.97012441c-29.232 0-52.92-23.688-52.92-52.92v-501.984c0-13.104-10.584-23.688-23.688-23.688s-23.688-10.584-23.688-23.688v-8.064c0-13.104 10.584-23.688 23.688-23.688h821.016c13.104 0 23.688 10.584 23.688 23.688v8.064c0.504 13.104-10.08 23.688-23.184 23.688z m-501.984 165.312c-9.072-20.16-29.232-32.76-50.904-32.256-28.728 0-51.912 23.184-51.912 51.912v2.016c0 22.176 13.104 41.832 33.768 49.896 27.72 11.088 58.968-2.016 70.056-29.736 5.04-13.608 5.04-28.728-1.008-41.832z m404.208-138.096c0-13.104-10.584-23.688-23.688-23.688h-287.28c-13.104 0-23.688 10.584-23.688 23.688v338.688c0 13.104-10.584 23.688-23.688 23.688h-194.544c-13.104 0-23.688-10.584-23.688-23.688v-338.688c0-13.104-10.584-23.688-23.688-23.688h-11.088c-13.104 0-23.688 10.584-23.688 23.688l3.528 457.632c0 13.104 10.584 23.184 23.688 23.184h584.136c13.104 0 23.688-10.584 23.688-23.688v-457.128zM617.40212441 43.29600000000005l148.68 154.728-73.08 39.312 7.056 130.536-85.68-150.192 59.472-42.336-56.448-132.048zM1002.96212441 525.624l-484.344 362.376-497.952-374.472c-14.112-10.584-16.632-30.24-6.552-43.848 10.584-14.112 30.24-16.632 43.848-6.552l460.656 343.224 444.528-334.656c15.12-11.088 35.784-7.56 46.872 7.056 11.088 15.12 7.56 35.784-7.056 46.872z"  horiz-adv-x="1024" />

    
    <glyph glyph-name="more" unicode="&#58928;" d="M902.5597869 270.15261274c-62.45794162 0-114.63799412 52.18005251-114.63799416 114.63799411s52.18005251 114.63799412 114.63799416 114.63799414 114.63799412-52.18005251 114.63799412-114.63799414c0.79060685-64.03915533-49.80823193-114.63799412-114.63799412-114.63799411z m-390.5597869 0c-62.45794162 0-114.63799412 52.18005251-114.63799412 114.63799411s52.18005251 114.63799412 114.63799412 114.63799414 114.63799412-52.18005251 114.63799412-114.63799414c0-64.03915533-50.59883879-114.63799412-114.63799412-114.63799411z m-390.5597869 0c-62.45794162 0-114.63799412 52.18005251-114.63799412 114.63799411s52.18005251 114.63799412 114.63799412 114.63799414 114.63799412-52.18005251 114.63799416-114.63799414c0-64.03915533-50.59883879-114.63799412-114.63799416-114.63799411z"  horiz-adv-x="1024" />

    
    <glyph glyph-name="remark" unicode="&#58912;" d="M880.04142246 896.83967891H145.45514599c-72.82159975 0-131.84794214-51.52245883-131.84794214-115.0779591v-785.83388223c0-63.56076061 59.02634239-115.0779591 131.84794214-115.0779591h734.58627647c72.82028466 0 131.84794214 51.51719848 131.84794212 115.0779591V781.76171981c0.00526034 63.55550029-59.02765746 115.0779591-131.84794212 115.0779591zM184.79727367 663.11198576h498.88069323v-77.78868143H184.79727367v77.78868143z m0-233.71585736h663.59133186v-77.90835431H184.79727367v77.90835431z m0-232.47441571h663.59133186v-77.9083543H184.79727367v77.9083543z"  horiz-adv-x="1024" />

    
    <glyph glyph-name="canshu" unicode="&#58886;" d="M691.2 450.77333333L640 481.49333333c5.12 15.36 5.12 30.72 5.12 46.08s0 30.72-5.12 46.08l51.2 30.72c20.48 10.24 25.6 35.84 15.36 56.32l-56.32 97.28C640 778.45333333 614.4 783.57333333 593.92 773.33333333l-51.2-30.72c-25.6 20.48-51.2 35.84-81.92 46.08V850.13333333c0 20.48-15.36 40.96-40.96 40.96H307.2c-20.48 0-40.96-20.48-40.96-40.96v-61.44c-30.72-10.24-56.32-25.6-81.92-46.08L133.12 773.33333333c-20.48 10.24-46.08 5.12-56.32-15.36l-56.32-97.28c-10.24-20.48-5.12-40.96 15.36-56.32l51.2-30.72c0-15.36-5.12-30.72-5.12-46.08s0-30.72 5.12-46.08l-51.2-30.72c-20.48-10.24-25.6-35.84-15.36-56.32l56.32-97.28c10.24-20.48 35.84-25.6 56.32-15.36l51.2 30.72c25.6-20.48 51.2-35.84 81.92-51.2v-61.44c0-20.48 15.36-40.96 40.96-40.96h112.64c20.48 5.12 40.96 25.6 40.96 46.08v61.44c30.72 10.24 61.44 25.6 81.92 46.08l51.2-30.72c20.48-10.24 40.96-5.12 56.32 15.36l56.32 97.28c10.24 20.48 5.12 46.08-15.36 56.32z m-327.68-40.96c-66.56 0-117.76 51.2-117.76 117.76S296.96 645.33333333 363.52 645.33333333s117.76-51.2 117.76-117.76-51.2-117.76-117.76-117.76z m640-353.28l-30.72 15.36c0 10.24 5.12 20.48 5.12 30.72s0 20.48-5.12 30.72l30.72 20.48c10.24 5.12 15.36 20.48 10.24 30.72l-35.84 61.44c-5.12 10.24-20.48 15.36-30.72 10.24l-35.84-20.48c-15.36 10.24-30.72 20.48-51.2 30.72v35.84c0 15.36-10.24 25.6-25.6 25.6H768c-15.36 0-25.6-10.24-25.6-25.6v-35.84c-20.48-5.12-35.84-15.36-51.2-30.72l-30.72 20.48c-10.24 5.12-25.6 5.12-30.72-10.24l-35.84-61.44c-5.12-10.24-5.12-25.6 10.24-30.72L634.88 133.33333332999996c0-10.24-5.12-20.48-5.12-30.72s0-20.48 5.12-30.72l-30.72-20.48c-10.24-5.12-15.36-20.48-10.24-30.72l35.84-61.44c5.12-10.24 20.48-15.36 30.72-10.24l30.72 20.48c15.36-10.24 30.72-25.6 51.2-30.72v-35.84c0-15.36 10.24-25.6 25.6-25.6h66.56c15.36 0 25.6 10.24 25.6 25.6v35.84c20.48 5.12 35.84 15.36 51.2 30.72l30.72-20.48c10.24-5.12 25.6-5.12 30.72 10.24l35.84 61.44c10.24 15.36 5.12 30.72-5.12 35.84z m-199.68-25.6c-40.96 0-71.68 30.72-71.68 71.68 0 40.96 30.72 71.68 71.68 71.68s71.68-30.72 71.68-71.68c0-40.96-30.72-71.68-71.68-71.68z"  horiz-adv-x="1024" />

    
    <glyph glyph-name="relation" unicode="&#58947;" d="M1188.584375-72.30656250000004a152.829375 152.829375 0 0 1 26.71040625 21.32625l326.17125 326.17125a153.8278125 153.8278125 0 0 1 0 217.6228125L1215.29375 818.98509375a154.0378125 154.0378125 0 0 1-217.6490625 0l-114.11625-114.1425L1021.259375 567.193125a259.224375 259.224375 0 0 0 0-366.2240625 52.52784375 52.52784375 0 1 0-74.27428125 74.30053125 154.0378125 154.0378125 0 0 1 0 217.6228125l-137.754375 137.675625-188.416875 188.416875C617.8953125 821.9529375 614.8746875 824.57934375 611.7753125 827.20565625a153.8278125 153.8278125 0 0 1-208.614375-8.27312812L76.9900625 492.81375a154.0903125 154.0903125 0 0 1 0-217.6228125l326.17125-326.17125a154.0640625 154.0640625 0 0 1 217.6490625 0l114.1425 114.11625-137.754375 137.754375a259.276875 259.276875 0 0 0 0 366.2240625 52.52784375 52.52784375 0 0 0 74.27428125-74.30053125 154.0903125 154.0903125 0 0 1 0-217.6228125l326.17125-326.17125a154.0903125 154.0903125 0 0 1 190.93875-21.32625Z"  horiz-adv-x="1658" />

    
    <glyph glyph-name="userRole" unicode="&#58949;" d="M761.2602424 64.17053309999994c-47.22162498 0-85.50191425 38.28028927-85.50191425 85.50066179 0 47.22162498 38.28028927 85.50191425 85.50191425 85.50191426 47.22162498 0 85.50191425-38.28028927 85.50191426-85.50191426 0-47.22037253-38.28028927-85.5006618-85.50191426-85.50066179z m0 64.12612259c11.80571937 0 21.37579169 9.56881985 21.37579166 21.3745392 0 11.80571937-9.57007232 21.37579169-21.37579166 21.37579169s-21.37579169-9.57007232-21.37579169-21.37579169c0-11.8044669 9.57007232-21.37453921 21.37579169-21.3745392z m82.1941586 163.74079364H679.0660838l-82.1941586-142.36625444 82.1941586-142.36500197h164.38956966l82.19541105 142.36500197-82.19541105 142.36625444zM500.56500978 368.84852051999997C289.84807396 313.01120027 168.49940669 209.55522415999997 129.15577605 57.521205269999996c-8.13349688-31.42931483 10.7523977-63.50114338 42.18046008-71.63464025a58.78186155 58.78186155 0 0 1 14.72646386-1.87368514h312.94299294c26.56098987 0 48.09459194-21.53360206 48.09459194-48.09459193 0-26.56224233-21.53360206-48.09459194-48.09459194-48.09459193H186.06269999a154.97104541 154.97104541 0 0 0-38.82385835 4.94096784c-82.85796416 21.44217223-132.64713899 105.99597175-111.20621921 188.85393592 39.2459385 151.65953235 142.97369916 263.42810761 307.37579344 334.80849779-67.25477597 47.39321246-111.18868472 125.66089852-111.18868472 214.19001664C232.21973115 775.23279279 349.45280391 892.46586556 494.06848248 892.46586556c144.61442611 0 261.84749888-117.23307276 261.84749889-261.84875135 0-142.4426547-113.73744761-258.32056213-255.35097159-261.76859369z m511.4722081-240.55186483L905.1607644-56.81992964999995a42.7503309 42.7503309 0 0 0-37.02281608-21.37579169H654.38253645a42.7503309 42.7503309 0 0 0-37.02281608 21.37579169l-106.87770592 185.11658534a42.7503309 42.7503309 0 0 0 0 42.75033089l106.87645347 185.11658532a42.7503309 42.7503309 0 0 0 37.02281607 21.37453923H868.13794832a42.7503309 42.7503309 0 0 0 37.02281608-21.37453923L1012.03847034 171.04698657999995a42.7503309 42.7503309 0 0 0 0-42.75033089z m-517.9687354 336.66214352c91.48994143 0 165.65831501 74.16712111 165.65831501 165.658315 0 91.49244637-74.16837357 165.65956747-165.65831501 165.65956747-91.49244637 0-165.65956747-74.16837357-165.65956747-165.65956747 0-91.49119391 74.16837357-165.65831501 165.65956747-165.658315z"  horiz-adv-x="1024" />

    
    <glyph glyph-name="recall" unicode="&#58916;" d="M833.09859211 176.35862269999996h-173.08420112l42.61184216 31.95763886c11.76634558 8.81512843 14.14595894 25.50969625 5.3171602 37.27604183-8.80270329 11.71415586-25.46993289 14.14595894-37.27604182 5.31716019l-134.90601862-101.17889198 134.90601862-101.17889319a26.4839083 26.4839083 0 0 1 15.95272458-5.33082931c8.10062339 0 16.09562582 3.67939007 21.32331724 10.6479895 8.82755478 11.76634558 6.44918538 28.46091218-5.3171602 37.27604183l-42.61184216 31.95763886h173.08420112c51.38223619 0 93.19631713-41.81408093 93.19631833-93.19631713s-41.81408093-93.19631713-93.19631833-93.19631833H606.76450137c-14.70513637 0-26.62805231-11.92291594-26.62805231-26.6280511s11.92291594-26.62805231 26.62805231-26.62805231h226.33409074c80.75398834 0 146.45117899 65.69719065 146.45117898 146.45117899s-65.69719065 146.4536645-146.45117898 146.45366329zM100.84145683-36.66082111000003V815.4194420599999c0 14.67904091 11.94901019 26.62805231 26.6280511 26.62805109h692.31568001c14.67904091 0 26.62805231-11.94901019 26.62805231-26.62805109v-505.92304455H899.6681009V815.4194420599999c0 44.0495503-35.83336266 79.88291296-79.88291296 79.88291296H127.46950793c-44.0495503 0-79.88291296-35.8321199-79.88291296-79.88291296v-852.08026317c0-44.0495503 35.8321199-79.88291296 79.88291296-79.88291296h319.53041029v53.25486065H127.46950793c-14.67904091 0-26.62805231 11.94901019-26.6280511 26.62805231zM180.72436978 682.2816672399999h346.15721864v-53.25486065H180.72436978zM686.64741433 708.90971955h106.5097213v-106.50972251h-106.5097213zM180.72436978 416.00611881h612.43276585v-53.25486065H180.72436978zM180.72436978 149.73181436000004h292.90235677V96.47695250000004H180.72436978z"  horiz-adv-x="1024" />

    
    <glyph glyph-name="receive" unicode="&#58924;" d="M868.04000042 893.33333333c41.832 0 75.31200042-34.16400028 75.95999972-75.42000014v-447.91199972l-328.46399972 1.08000014a86.40000042 86.40000042 0 0 1-86.65200042-85.2840007L523.592-114.66666667000004H155.31200028A75.45599972 75.45599972 0 0 0 79.99999986-39.24666652999997V817.91333319C79.99999986 859.16933305 113.48000028 893.33333333 155.31200028 893.33333333H868.04000042z m-111.384-419.11199958c0 21.59999986-16.84800042 39.96000028-36.9000007 39.9599993H261.54799958c-20.08799986 0-36.89999972-17.67599958-36.89999972-39.9599993 0-21.59999986 16.81199986-39.96000028 36.89999972-39.96000028H719.72000014c20.69999958 0 36.89999972 17.67599958 36.89999972 39.96000028zM260.90000028 362.83733374999997c-20.08799986 0-36.89999972-17.67599958-36.9000007-39.96000028 0-21.59999986 16.81199986-39.96000028 36.9000007-39.96000028h180.53999972c20.08799986 0 36.89999972 17.67599958 36.89999972 39.96000028 0 21.59999986-16.81199986 39.96000028-36.89999972 39.96000028H260.90000028z m0.6479993 234.57599944H719.72000014c20.05200028 0 36.89999972 17.67599958 36.89999972 39.96000028 0 21.59999986-16.84800042 39.96000028-36.89999972 39.96000028H261.54799958c-20.08799986 0-36.89999972-17.67599958-36.89999972-39.96000028 0-22.28399972 16.81199986-39.96000028 36.89999972-39.96000028zM821.60000028 119.33333360999995h84.34799986a36.00000042 36.00000042 0 0 0 28.29600014-58.24800056l-123.94800042-157.71599944a36.00000042 36.00000042 0 0 0-56.59200028 0l-123.94799944 157.71599944a36.00000042 36.00000042 0 0 0 28.29600014 58.24800056H749.60000042v180.00000014a36.00000042 36.00000042 0 0 0 71.99999986 0v-180.00000014z"  horiz-adv-x="1024" />

    
    <glyph glyph-name="add1" unicode="&#58882;" d="M953.86906337 442.91587557H570.91587557V825.86906337c0 35.34952507-23.56635051 58.91587557-58.91587557 58.91587558s-58.91587557-23.56635051-58.91587557-58.91587558V442.91587557H70.13093663c-35.34952507 0-58.91587557-23.56635051-58.91587558-58.91587557s23.56635051-58.91587557 58.91587558-58.91587557H453.08412443v-382.9531878c0-35.34952507 23.56635051-58.91587557 58.91587557-58.91587558s58.91587557 23.56635051 58.91587557 58.91587558V325.08412443h382.9531878c35.34952507 0 58.91587557 23.56635051 58.91587558 58.91587557s-23.56635051 58.91587557-58.91587558 58.91587557z"  horiz-adv-x="1024" />

    
    <glyph glyph-name="close" unicode="&#58940;" d="M512 891.24764928C232.4501844 891.24764928 4.75235072 663.5498156 4.75235072 384s227.69783368-507.24764928 507.24764928-507.24764928 507.24764928 227.69783368 507.24764928 507.24764928S791.5498156 891.24764928 512 891.24764928z m199.51740872-674.07576505c9.01773598-9.01773598 9.01773598-22.54433996 0-31.56207595-4.50886799-4.50886799-10.14495299-6.76330199-15.78103798-6.76330199s-11.27216999 2.25443399-15.78103799 6.76330199L512 352.43792404 345.17188423 184.48259127999995c-4.50886799-4.50886799-10.14495299-6.76330199-15.78103797-6.76330198s-11.27216999 2.25443399-15.78103798 6.76330198c-9.01773598 9.01773598-9.01773598 22.54433996 0 31.56207597L480.43792404 384 312.48259128 550.8281157700001c-9.01773598 9.01773598-9.01773598 22.54433996 0 31.56207595s22.54433996 9.01773598 31.56207597 0L512 415.56207596l166.82811577 166.82811576c9.01773598 9.01773598 22.54433996 9.01773598 31.56207595 0s9.01773598-22.54433996 0-31.56207595L543.56207596 384l167.95533276-166.82811577z"  horiz-adv-x="1024" />

    
    <glyph glyph-name="floder" unicode="&#58938;" d="M1005.29520776 742.31723454a45.2540051 45.2540051 0 0 1-32.01296275 13.25106203H449.87781876l-14.59119783 48.48285556c-5.61103573 19.22531214-23.18309627 32.47637419-43.20998492 32.5890959H42.92743306c-11.99859871 0-23.52126137-4.7718853-32.01296275-13.25106205a45.2540051 45.2540051 0 0 1-13.25106205-32.01296276v-814.7399218a45.25150017 45.25150017 0 0 1 13.25106205-32.0254874 45.28907407 45.28907407 0 0 1 32.01296275-13.26358668H973.28224501c12.01112335 0 23.52126137 4.7718853 32.01296275 13.26358668a45.28281174 45.28281174 0 0 1 13.25106206 32.0254874V710.30427178a45.20140163 45.20140163 0 0 1-13.25106206 32.01296276z m-57.28767278-139.52441515H68.4275865V641.88219997a45.26652974 45.26652974 0 0 0 45.2640248 45.26402479h789.03937424a45.26652974 45.26652974 0 0 0 45.26402481-45.26402479v-39.08938058z"  horiz-adv-x="1024" />

    
    <glyph glyph-name="add" unicode="&#58911;" d="M1022.43160861 311.41901084999995L580.00414493 311.41901084999995l0-435.490593-137.31695844 0L442.68718649 311.41901084999995 3.27175509 311.41901084999995 3.27175509 456.5821531l439.4154314 0L442.68718649 892.0727461l137.31695844 0 0-435.490593 442.42862648 0L1022.43277255 311.41901084999995z"  horiz-adv-x="1024" />

    
    <glyph glyph-name="search" unicode="&#58897;" d="M790.135403 169.99451799999997l221.883586-221.926239a44.444963 44.444963 0 0 0 0-62.913935 44.444963 44.444963 0 0 0-62.913935 0l-221.926239 221.883586c-174.794105-143.230504-433.1891-133.292235-596.381449 29.900114-173.855728 173.813074-173.855728 455.624849 0 629.437923 173.813074 173.813074 455.624849 173.813074 629.437923 0 163.235003-163.192349 173.130618-421.587344 29.900114-596.381449zM193.753954 703.4193789999999a356.028891 356.028891 0 0 1 0-503.5674 356.028891 356.028891 0 0 1 503.524747 0h0.042653v0.042653A356.071545 356.071545 0 0 1 193.753954 703.4193789999999z"  horiz-adv-x="1025" />

    
    <glyph glyph-name="export" unicode="&#58892;" d="M877.714286 18.285713999999984H146.285714V310.85714299999995H0v-438.857143h1024V310.85714299999995h-146.285714v-292.571429zM752.64 448.365714L512 689.005714 271.36 448.365714 167.497143 551.497143 512 896l344.502857-344.502857-103.862857-103.131429zM438.857143 749.714286h146.285714v-585.142857H438.857143z"  horiz-adv-x="1024" />

    
    <glyph glyph-name="eyes" unicode="&#58885;" d="M716.8 892.0064c-473.9072 0-716.8-509.952-716.8-509.952S183.6032-128 716.8-128c483.1232 0 716.6976 508.1088 716.6976 508.1088s-235.8272 512-716.8 512z m1.024-828.6208c-173.1584 0-298.3936 139.264-298.3936 318.7712S544.6656 701.0304 717.824 701.0304c173.056 0 298.496-139.3664 298.496-318.8736 0-179.2-125.2352-318.7712-298.496-318.7712z m0 509.952c-98.816 0-178.9952-88.9856-178.9952-191.1808s80.0768-191.1808 178.9952-191.1808S897.024 279.9616 897.024 382.1568c0 102.4-80.0768 191.488-179.0976 191.1808z"  horiz-adv-x="1433" />

    
    <glyph glyph-name="delete" unicode="&#58900;" d="M804.04821333-3.7865244500000017c0-31.16600889-18.44224-49.60711111-49.60824888-49.6071111H269.97077333c-31.16600889 0-49.60711111 20.71665778-49.60711111 51.88266666V639.51758222h-72.36380444v-651.26855111c0-62.33088 50.53667555-112.86869333 112.86869333-112.86869333h501.53585778c62.33088 0 112.86869333 50.53781333 112.86869333 112.86869333V639.51758222h-71.22602667v-643.30410667z m-364.76700444 54.15708445V611.3006933300001c0 15.58300445-16.13368889 28.21688889-36.07210667 28.21688889-19.93728 0-36.07210667-12.63388445-36.07210667-28.21688889v-560.92899555c0-15.58186667 16.13482667-30.49244445 36.07210667-30.49244445 19.93841778 0 36.07210667 14.90944 36.07210667 30.49130667z m217.99253333 0V611.3006933300001c0 15.58300445-16.17578667 28.21688889-36.16540444 28.21688889-19.98734222 0-36.16199111-12.63388445-36.16199111-28.21688889v-560.92899555c0-15.58186667 16.17464889-30.49244445 36.16199111-30.49244445 19.98961778 0 36.16540445 14.90944 36.16540444 30.49130667z m299.23783111 734.78371555H695.72949333v51.88380445c0 31.16487111-25.26776889 56.43377778-56.43491555 56.43377778h-253.04177778c-31.16600889 0-56.43491555-25.26890667-56.43491555-56.43377778v-51.88380445H70.17585778c-15.59665778 0-28.21688889-21.73610667-28.21688889-37.3191111s12.62023111-37.32024889 28.21688889-37.3202489h886.33457777c15.59665778 0 28.21688889 21.73724445 28.2168889 37.3202489s-12.61909333 37.31911111-28.21575112 37.3191111z"  horiz-adv-x="1024" />

    
    <glyph glyph-name="edit" unicode="&#58946;" d="M734.19662222 531.13742222L495.09262222 772.48284445 92.85404445 373.97617777999994l239.09262222-241.34542223 402.24995555 398.50666667z m120.67271111 119.54631111L615.76533333 892.02915555l-80.44088888-79.70133333 239.09262222-241.34542222 80.45226666 79.70133333zM291.72622222 92.78577777999999L52.6336 334.11982221999995 11.25262222 54.05582221999998l280.4736 38.72995556zM2.30968889-11.582577779999951v-113.24302222h1019.19857778v113.24302222H2.30968889z"  horiz-adv-x="1024" />

    


  </font>
</defs>
</svg>
